<?xml version="1.0" encoding="iso-8859-1"?>
<!-- Generator: Adobe Illustrator 26.3.1, SVG Export Plug-In . SVG Version: 6.00 Build 0)  -->
<svg version="1.1" id="Layer_1" xmlns="http://www.w3.org/2000/svg" xmlns:xlink="http://www.w3.org/1999/xlink" x="0px" y="0px"
	 viewBox="0 0 2560 1440" style="enable-background:new 0 0 2560 1440;" xml:space="preserve">
<image style="display:none;overflow:visible;" width="800" height="600" xlink:href="B65FD6210BB2B091.jpg"  transform="matrix(3.2878 0 0 3.2878 140.2233 -259.5288)">
</image>
<rect y="-0.062" style="fill:#060708;" width="2560" height="1440.062"/>
<path style="fill:#222126;" d="M1633.429,0l-622.854,481.192c-28.524,20.035-47.171,53.181-47.171,90.686
	c0,61.166,49.584,110.75,110.75,110.75c26.363,0,50.569-9.217,69.586-24.596l235.829-173.196
	c17.791-13.919,40.191-22.218,64.531-22.218c57.887,0,104.813,46.926,104.813,104.813c0,35.602-17.754,67.052-44.888,85.995
	l-418.03,332.259c-28.361,20.056-46.879,53.106-46.879,90.485c0,61.166,49.584,110.75,110.75,110.75
	c26.81,0,51.394-9.527,70.553-25.38l882.846-703.598c19.031-15.53,43.331-24.847,69.809-24.847c61.028,0,110.5,49.473,110.5,110.5
	c0,36.185-17.394,68.306-44.275,88.463l-147.773,120.119c-28.361,20.056-46.879,53.107-46.879,90.485
	c0,61.166,49.584,110.75,110.75,110.75c26.81,0,51.394-9.527,70.553-25.38l334.045-260.985l-0.461-667.109L1633.429,0z"/>
<circle style="fill:#222126;" cx="695.744" cy="888.376" r="110.5"/>
<path style="fill:#474751;" d="M715.841,123.156l-2.628-9.443c-0.369-1.327-1.742-2.106-3.071-1.742l-10.004,2.74
	c-1.333,0.365-2.709-0.42-3.074-1.752l-2.75-10.043c-0.366-1.337-1.749-2.121-3.084-1.75l-9.443,2.628
	c-1.327,0.369-2.106,1.742-1.742,3.071l2.74,10.005c0.365,1.333-0.42,2.709-1.752,3.074l-10.043,2.75
	c-1.337,0.366-2.121,1.749-1.75,3.084l2.628,9.443c0.369,1.327,1.742,2.106,3.071,1.742l10.005-2.74
	c1.333-0.365,2.709,0.42,3.074,1.752l2.75,10.043c0.366,1.337,1.749,2.121,3.084,1.75l9.443-2.628
	c1.327-0.369,2.106-1.742,1.742-3.071l-2.74-10.004c-0.365-1.333,0.42-2.709,1.752-3.074l10.043-2.75
	C715.428,125.874,716.212,124.491,715.841,123.156z"/>
<path style="fill:#474751;" d="M2069.358,1273.78l-3.342-9.215c-0.47-1.295-1.898-1.967-3.196-1.503l-9.766,3.497
	c-1.301,0.466-2.733-0.211-3.199-1.512l-3.51-9.803c-0.467-1.305-1.906-1.981-3.209-1.509l-9.215,3.342
	c-1.295,0.47-1.967,1.898-1.503,3.196l3.497,9.766c0.466,1.301-0.211,2.733-1.512,3.199l-9.803,3.51
	c-1.305,0.467-1.981,1.906-1.509,3.209l3.342,9.215c0.47,1.295,1.898,1.967,3.195,1.503l9.766-3.497
	c1.301-0.466,2.733,0.211,3.199,1.512l3.51,9.803c0.467,1.305,1.906,1.981,3.208,1.509l9.215-3.342
	c1.295-0.47,1.967-1.898,1.503-3.196l-3.497-9.766c-0.466-1.301,0.211-2.733,1.512-3.199l9.803-3.51
	C2069.154,1276.521,2069.831,1275.083,2069.358,1273.78z"/>
<path style="fill:#474751;" d="M2475.142,1186.989l-2.065-9.582c-0.29-1.347-1.615-2.206-2.963-1.921l-10.149,2.144
	c-1.352,0.286-2.679-0.579-2.965-1.931l-2.152-10.188c-0.286-1.356-1.62-2.221-2.975-1.929l-9.582,2.065
	c-1.347,0.29-2.206,1.615-1.921,2.963l2.144,10.149c0.286,1.352-0.579,2.679-1.931,2.965l-10.188,2.152
	c-1.356,0.286-2.221,1.62-1.929,2.975l2.065,9.582c0.29,1.347,1.615,2.206,2.963,1.921l10.149-2.144
	c1.352-0.286,2.679,0.579,2.965,1.931l2.152,10.188c0.286,1.356,1.62,2.221,2.975,1.929l9.582-2.065
	c1.347-0.29,2.206-1.615,1.921-2.963l-2.144-10.149c-0.286-1.352,0.579-2.68,1.931-2.965l10.188-2.152
	C2474.57,1189.678,2475.434,1188.344,2475.142,1186.989z"/>
<circle style="fill:#474751;" cx="2451.805" cy="1402.798" r="9.559"/>
<circle style="fill:#474751;" cx="79.931" cy="1375.349" r="9.559"/>
<path style="fill:#474751;" d="M241.413,344.288l-3.342-9.215c-0.47-1.295-1.898-1.967-3.196-1.503l-9.766,3.497
	c-1.301,0.466-2.733-0.211-3.199-1.512l-3.51-9.803c-0.467-1.305-1.906-1.981-3.209-1.509l-9.215,3.342
	c-1.295,0.47-1.967,1.898-1.503,3.196l3.497,9.766c0.466,1.301-0.211,2.733-1.512,3.199l-9.803,3.51
	c-1.305,0.467-1.981,1.906-1.509,3.209l3.342,9.215c0.47,1.295,1.898,1.967,3.196,1.503l9.766-3.497
	c1.301-0.466,2.733,0.211,3.199,1.512l3.51,9.803c0.467,1.305,1.906,1.981,3.209,1.509l9.215-3.342
	c1.295-0.47,1.967-1.898,1.503-3.196l-3.497-9.766c-0.466-1.301,0.211-2.733,1.512-3.199l9.803-3.51
	C241.209,347.029,241.886,345.59,241.413,344.288z"/>
<path style="fill:#474751;" d="M264.889,807.87l9.582-2.065c1.347-0.29,2.206-1.615,1.921-2.963l-2.144-10.149
	c-0.286-1.352,0.579-2.68,1.931-2.965l10.188-2.152c1.356-0.286,2.221-1.62,1.929-2.975l-2.065-9.582
	c-0.29-1.347-1.615-2.206-2.963-1.921l-10.149,2.144c-1.352,0.286-2.68-0.579-2.965-1.931l-2.152-10.188
	c-0.286-1.356-1.62-2.221-2.975-1.929l-9.582,2.065c-1.347,0.29-2.206,1.615-1.921,2.963l2.144,10.149
	c0.286,1.352-0.579,2.68-1.931,2.965l-10.188,2.152c-1.356,0.286-2.221,1.62-1.929,2.975l2.065,9.582
	c0.29,1.347,1.615,2.206,2.963,1.921l10.149-2.144c1.352-0.286,2.68,0.579,2.965,1.931l2.152,10.188
	C262.201,807.297,263.535,808.162,264.889,807.87z"/>
<path style="fill:#474751;" d="M446.583,1346.883l9.582-2.065c1.347-0.29,2.206-1.615,1.921-2.963l-2.144-10.149
	c-0.286-1.352,0.579-2.68,1.931-2.965l10.188-2.152c1.356-0.286,2.221-1.62,1.929-2.975l-2.065-9.582
	c-0.29-1.347-1.615-2.206-2.963-1.921l-10.149,2.144c-1.352,0.286-2.68-0.579-2.965-1.931l-2.152-10.188
	c-0.286-1.356-1.62-2.221-2.975-1.929l-9.582,2.065c-1.347,0.29-2.206,1.615-1.921,2.963l2.144,10.149
	c0.286,1.352-0.579,2.68-1.931,2.965l-10.188,2.152c-1.356,0.286-2.221,1.62-1.929,2.975l2.065,9.582
	c0.29,1.347,1.615,2.206,2.963,1.921l10.149-2.144c1.352-0.286,2.68,0.579,2.965,1.931l2.152,10.188
	C443.894,1346.31,445.228,1347.175,446.583,1346.883z"/>
<path style="fill:#474751;" d="M89.42,67.119l9.582-2.065c1.347-0.29,2.206-1.615,1.921-2.963L98.78,51.942
	c-0.286-1.352,0.579-2.68,1.931-2.965l10.188-2.152c1.356-0.286,2.221-1.62,1.929-2.975l-2.065-9.582
	c-0.29-1.347-1.615-2.206-2.963-1.921L97.65,34.491c-1.352,0.286-2.68-0.579-2.965-1.931l-2.152-10.188
	c-0.286-1.356-1.62-2.221-2.975-1.929l-9.582,2.065c-1.347,0.29-2.206,1.615-1.921,2.963l2.144,10.149
	c0.286,1.352-0.579,2.68-1.931,2.965L68.08,40.737c-1.356,0.286-2.221,1.62-1.929,2.975l2.065,9.582
	c0.29,1.347,1.615,2.206,2.963,1.921l10.149-2.144c1.352-0.286,2.68,0.579,2.965,1.931l2.152,10.188
	C86.732,66.546,88.066,67.411,89.42,67.119z"/>
<circle style="fill:#474751;" cx="1740.544" cy="1046.12" r="9.559"/>
</svg>
